<svg xmlns="http://www.w3.org/2000/svg" width="134" height="180" fill-rule="evenodd" clip-rule="evenodd" image-rendering="optimizeQuality" shape-rendering="geometricPrecision" text-rendering="geometricPrecision" viewBox="0 0 12910 17351"><path fill="#e5e9ec" d="M6781 14782l383 -8132c60,-318 387,-383 2400,-859 2014,-476 3346,-1870 3346,-1870l-12910 0c0,0 1332,1394 3345,1870 2014,476 2341,541 2401,859l384 8132 325 2569 326 -2569z"/><path fill="#ccd2d9" d="M6781 14782l383 -8132c60,-318 387,-383 2401,-859 2013,-476 3345,-1870 3345,-1870l-865 0c-2088,2330 -4927,1696 -5055,2618l-354 8248 -181 2564 326 -2569z"/><path fill="#5d718f" d="M7901 14669c-606,639 -1806,1005 -1720,1050 97,51 1699,-383 2067,-1115 386,-816 -835,-1083 -1404,-1178l-19 411c427,62 1523,158 1076,832zm-667 -2326c305,-68 969,-236 1170,-437 122,-122 150,-84 254,-288 199,-394 -140,-786 -578,-962 -211,-86 -629,-130 -1097,-167l-32 680c391,29 675,53 686,73 63,317 -1927,591 -2161,667 -207,68 -532,161 -677,268 -188,140 -63,19 -258,214 -73,74 -105,242 -67,369 68,233 180,280 293,407 119,133 579,344 767,421 137,57 329,100 546,138l-21 -450c-229,-58 -428,-132 -569,-238 -594,-447 1508,-643 1744,-695zm-1349 -2745c394,-130 760,-232 807,-247 122,-43 238,-84 351,-125 1136,-415 1863,-777 2799,-1699 736,-656 1178,-1496 1378,-2374 -390,210 -837,406 -1331,552 -348,711 -864,1338 -1445,1752 -281,207 -937,467 -1348,637 -77,32 -145,61 -200,85l-654 254c-123,53 -267,102 -405,154 -87,33 -172,67 -246,104 -143,72 -437,172 -634,273 -52,27 -89,54 -149,78 -117,47 -482,263 -562,348 -24,25 -33,40 -48,56 -193,199 -326,441 -283,746 54,370 304,565 656,709 193,79 777,141 1385,192l-33 -687c-533,-52 -974,-128 -1070,-282 -52,-135 514,-355 1032,-526zm5462 -5677c-45,-2682 -2115,-5114 -4816,-3285 -216,162 -440,384 -615,608 -151,193 -356,566 -423,800l-186 634c-55,171 9,225 97,303 -45,82 -101,109 -161,158 -349,285 -886,495 -1307,170l-449 -388c-162,-120 -101,-89 -280,-176l80 79c79,71 147,138 202,238 -96,-48 -94,-83 -173,-128 -208,-117 -439,-244 -704,-225 268,24 592,242 759,449 226,280 311,402 743,496 300,65 756,-59 971,-255 64,-58 62,-25 169,-127 468,-448 15,-125 595,-349l611 -314c27,-16 63,-37 98,-60 219,-142 354,-201 512,-413 132,-176 47,-17 162,-310 56,-146 79,-343 176,-434 119,-112 268,-136 416,-213 244,-128 994,66 1007,112 4,14 307,174 351,208 136,75 373,275 471,390l92 117c447,564 625,1233 607,1915l995 0z"/><path fill="#fff" d="M5913 1948c0,0 -240,35 -249,232 -9,196 -9,227 -9,227 0,0 120,-103 183,-183 62,-80 75,-276 75,-276z"/></svg>